<?xml version="1.0" encoding="UTF-8"?>
<svg width="352px" height="52px" viewBox="0 0 352 52" version="1.1" xmlns="http://www.w3.org/2000/svg" xmlns:xlink="http://www.w3.org/1999/xlink">
    <title>pacecar</title>
    <g id="Page-1" stroke="none" stroke-width="1" fill="none" fill-rule="evenodd">
        <g id="Artboard-Copy" transform="translate(-57.000000, -52.000000)" fill="#000000" fill-rule="nonzero" stroke="#000000" stroke-width="2">
            <path d="M66.6168101,103 L66.6168101,83.1326595 C68.4698875,85.3225942 70.1530995,86.8439672 71.6664461,87.6967783 C73.1797926,88.5495894 74.9170527,89.1918299 76.8782263,89.6234997 C78.8394,90.0551695 80.9163909,90.2710044 83.1091992,90.2710044 C89.9347011,90.2710044 95.2391352,88.4969467 99.0225017,84.9488313 C102.805868,81.4007159 104.697551,76.9418825 104.697551,71.572331 C104.697551,67.9505159 103.794176,64.6866709 101.987426,61.780796 C100.180675,58.874921 97.6404147,56.6902506 94.3666446,55.2267846 C91.0928745,53.7633186 87.4793735,53.0315856 83.5261416,53.0315856 C81.364218,53.0315856 79.2640635,53.2632133 77.2256784,53.7264687 C75.1872932,54.1897242 73.3573792,54.8530217 71.7359365,55.7163613 C70.1144937,56.579701 68.4081182,58.0536955 66.6168101,60.1383449 L66.6168101,60.1383449 L66.6168101,54.0107391 L58,54.0107391 L58,103 L66.6168101,103 Z M81.117141,85.3752369 C76.515332,85.3752369 72.948158,84.0907559 70.4156188,81.5217941 C67.8830796,78.9528322 66.6168101,75.6679301 66.6168101,71.6670878 C66.6168101,69.0349547 67.2036179,66.608128 68.3772336,64.3866077 C69.5508493,62.1650874 71.318994,60.4910507 73.6816678,59.3644978 C76.0443415,58.2379448 78.5846018,57.6746684 81.3024487,57.6746684 C85.0703728,57.6746684 88.4213545,58.7012003 91.3553938,60.7542641 C94.289433,62.8073279 95.7564527,66.4765214 95.7564527,71.7618446 C95.7564527,76.2891135 94.3666446,79.6898294 91.5870285,81.9639924 C88.8074123,84.2381554 85.3174498,85.3752369 81.117141,85.3752369 Z M129.06552,90.2710044 C131.505405,90.2710044 134.061107,89.9288271 136.732627,89.2444725 C139.404147,88.5601179 142.623869,86.9439882 146.391794,84.3960834 C146.391794,85.7647926 146.839621,87.3967151 147.735275,89.2918509 L147.735275,89.2918509 L156.815354,89.2918509 C155.827046,87.1019162 155.278844,85.180459 155.170748,83.5274795 C155.062652,81.8744999 155.008604,80.3004843 155.008604,78.8054327 L155.008604,78.8054327 L155.008604,65.0972836 C155.008604,61.3491261 154.298257,58.795957 152.877565,57.4377764 C151.456872,56.0795957 149.202294,55.0004211 146.113832,54.2002527 C143.02537,53.4000842 139.597176,53 135.829252,53 C132.030443,53 128.53276,53.4211413 125.336201,54.2634239 C122.139643,55.1057065 119.576219,56.3586018 117.64593,58.0221099 C115.715641,59.685618 114.750496,61.2964835 114.750496,62.8547063 L114.750496,62.8547063 L114.750496,63.3284902 L124.108537,63.3284902 L124.108537,62.8231207 C124.108537,61.3912403 125.112288,60.1383449 127.119788,59.0644346 C129.127289,57.9905243 131.922347,57.4535692 135.504964,57.4535692 C138.500772,57.4535692 141.064196,57.8905033 143.195235,58.7643714 C145.326274,59.6382396 146.391794,61.1596126 146.391794,63.3284902 L146.391794,63.3284902 L146.391794,67.3082754 L141.7591,67.9084018 C131.598059,69.2560539 124.440547,70.8563908 120.286565,72.7094125 C116.132583,74.5624342 114.055592,77.1945673 114.055592,80.6058117 C114.055592,83.616972 115.530333,85.9806275 118.479815,87.6967783 C121.429296,89.412929 124.957865,90.2710044 129.06552,90.2710044 Z M131.891463,85.8490208 C130.501655,85.8490208 129.096404,85.6279217 127.675711,85.1857233 C126.255019,84.743525 125.181778,84.1223415 124.455989,83.3221731 C123.730201,82.5220046 123.367306,81.658665 123.367306,80.7321541 C123.367306,78.9212466 124.587249,77.3630238 127.027134,76.0574858 C129.46702,74.7519478 135.057137,73.37271 143.797485,71.9197726 L143.797485,71.9197726 L146.391794,71.4775742 L146.391794,74.9835755 C146.391794,77.110339 145.743216,78.9738892 144.446062,80.5742262 C143.148908,82.1745631 141.334436,83.4537797 139.002647,84.4118762 C136.670858,85.3699726 134.300463,85.8490208 131.891463,85.8490208 Z M189.614825,90.2710044 C193.598941,90.2710044 197.003971,89.8445989 199.829914,88.9917877 C202.655857,88.1389766 204.941319,86.9124026 206.6863,85.3120657 C208.431282,83.7117288 209.303772,82.1219204 209.303772,80.5426406 L209.303772,80.5426406 L209.303772,80.2267846 L200.640635,80.2267846 L200.640635,80.5426406 C200.640635,81.8271215 199.791308,82.9536745 198.092654,83.9222994 C196.394,84.8909244 193.72248,85.3752369 190.078094,85.3752369 C185.754247,85.3752369 182.125303,84.2907981 179.191264,82.1219204 C176.257225,79.9530427 174.790205,76.45757 174.790205,71.6355022 C174.790205,66.8344915 176.257225,63.3495473 179.191264,61.1806696 C182.125303,59.011792 185.754247,57.9273531 190.078094,57.9273531 C193.72248,57.9273531 196.417163,58.4116656 198.162144,59.3802906 C199.907126,60.3489156 200.733289,61.4754685 200.640635,62.7599495 L200.640635,62.7599495 L200.640635,63.0758054 L209.303772,63.0758054 L209.303772,62.7599495 C209.303772,60.9490419 208.431282,59.3013266 206.6863,57.8168035 C204.941319,56.3322805 202.655857,55.1636134 199.829914,54.3108023 C197.003971,53.4579912 193.598941,53.0315856 189.614825,53.0315856 C181.986323,53.0315856 176.110523,54.6793009 171.987426,57.9747315 C167.864328,61.2701621 165.80278,65.8237524 165.80278,71.6355022 C165.80278,77.4683091 167.864328,82.0324279 171.987426,85.3278585 C176.110523,88.6232891 181.986323,90.2710044 189.614825,90.2710044 Z M242.195897,90.2710044 C246.087359,90.2710044 249.530995,89.8498631 252.526803,89.0075805 C255.522612,88.165298 257.931613,86.9334597 259.753805,85.3120657 C261.575998,83.6906717 262.487095,82.1008633 262.487095,80.5426406 L262.487095,80.5426406 L262.487095,80.2267846 L253.870285,80.2267846 L253.870285,80.5426406 C253.870285,81.7639503 252.997794,82.8747105 251.252813,83.874921 C249.507831,84.8751316 246.735936,85.3752369 242.937128,85.3752369 C237.655857,85.3752369 233.525039,84.1539271 230.544672,81.7113076 C227.564306,79.2686881 226.074123,76.1627711 226.074123,72.3935565 L226.074123,72.3935565 L262.811383,72.3935565 L262.811383,70.4352495 C262.811383,66.0553801 261.884844,62.6388713 260.031767,60.1857233 C258.17869,57.7325753 255.661593,55.926932 252.480477,54.7687934 C249.29936,53.6106549 245.747629,53.0315856 241.825281,53.0315856 C234.690933,53.0315856 228.86146,54.8161718 224.336863,58.3853443 C219.812266,61.9545167 217.549967,66.4554643 217.549967,71.888187 C217.549967,77.1945673 219.688727,81.5849653 223.966248,85.0593809 C228.243768,88.5337966 234.320318,90.2710044 242.195897,90.2710044 Z M254.565189,67.971573 L226.630046,67.971573 C227.494816,64.7919562 229.286124,62.3230154 232.003971,60.5647505 C234.721818,58.8064856 237.686742,57.9273531 240.898743,57.9273531 C243.616589,57.9273531 245.994705,58.301116 248.033091,59.0486418 C250.071476,59.7961676 251.669755,60.9437776 252.827929,62.4914719 C253.986102,64.0391661 254.565189,65.6342388 254.565189,67.2766898 L254.565189,67.2766898 L254.565189,67.971573 Z M295.981469,90.2710044 C299.965586,90.2710044 303.370615,89.8445989 306.196559,88.9917877 C309.022502,88.1389766 311.307964,86.9124026 313.052945,85.3120657 C314.797926,83.7117288 315.670417,82.1219204 315.670417,80.5426406 L315.670417,80.5426406 L315.670417,80.2267846 L307.00728,80.2267846 L307.00728,80.5426406 C307.00728,81.8271215 306.157953,82.9536745 304.459298,83.9222994 C302.760644,84.8909244 300.089124,85.3752369 296.444739,85.3752369 C292.120891,85.3752369 288.491948,84.2907981 285.557909,82.1219204 C282.623869,79.9530427 281.15685,76.45757 281.15685,71.6355022 C281.15685,66.8344915 282.623869,63.3495473 285.557909,61.1806696 C288.491948,59.011792 292.120891,57.9273531 296.444739,57.9273531 C300.089124,57.9273531 302.783808,58.4116656 304.528789,59.3802906 C306.27377,60.3489156 307.099934,61.4754685 307.00728,62.7599495 L307.00728,62.7599495 L307.00728,63.0758054 L315.670417,63.0758054 L315.670417,62.7599495 C315.670417,60.9490419 314.797926,59.3013266 313.052945,57.8168035 C311.307964,56.3322805 309.022502,55.1636134 306.196559,54.3108023 C303.370615,53.4579912 299.965586,53.0315856 295.981469,53.0315856 C288.352967,53.0315856 282.477167,54.6793009 278.35407,57.9747315 C274.230973,61.2701621 272.169424,65.8237524 272.169424,71.6355022 C272.169424,77.4683091 274.230973,82.0324279 278.35407,85.3278585 C282.477167,88.6232891 288.352967,90.2710044 295.981469,90.2710044 Z M339.66777,90.2710044 C342.107655,90.2710044 344.663358,89.9288271 347.334878,89.2444725 C350.006398,88.5601179 353.22612,86.9439882 356.994044,84.3960834 C356.994044,85.7647926 357.441871,87.3967151 358.337525,89.2918509 L358.337525,89.2918509 L367.417604,89.2918509 C366.429296,87.1019162 365.881094,85.180459 365.772998,83.5274795 C365.664902,81.8744999 365.610854,80.3004843 365.610854,78.8054327 L365.610854,78.8054327 L365.610854,65.0972836 C365.610854,61.3491261 364.900507,58.795957 363.479815,57.4377764 C362.059122,56.0795957 359.804544,55.0004211 356.716082,54.2002527 C353.62762,53.4000842 350.199426,53 346.431502,53 C342.632694,53 339.13501,53.4211413 335.938451,54.2634239 C332.741893,55.1057065 330.178469,56.3586018 328.24818,58.0221099 C326.317891,59.685618 325.352747,61.2964835 325.352747,62.8547063 L325.352747,62.8547063 L325.352747,63.3284902 L334.710788,63.3284902 L334.710788,62.8231207 C334.710788,61.3912403 335.714538,60.1383449 337.722038,59.0644346 C339.729539,57.9905243 342.524597,57.4535692 346.107214,57.4535692 C349.103022,57.4535692 351.666446,57.8905033 353.797485,58.7643714 C355.928524,59.6382396 356.994044,61.1596126 356.994044,63.3284902 L356.994044,63.3284902 L356.994044,67.3082754 L352.36135,67.9084018 C342.200309,69.2560539 335.042797,70.8563908 330.888815,72.7094125 C326.734833,74.5624342 324.657842,77.1945673 324.657842,80.6058117 C324.657842,83.616972 326.132583,85.9806275 329.082065,87.6967783 C332.031546,89.412929 335.560115,90.2710044 339.66777,90.2710044 Z M342.493713,85.8490208 C341.103905,85.8490208 339.698654,85.6279217 338.277962,85.1857233 C336.857269,84.743525 335.784028,84.1223415 335.05824,83.3221731 C334.332451,82.5220046 333.969557,81.658665 333.969557,80.7321541 C333.969557,78.9212466 335.189499,77.3630238 337.629385,76.0574858 C340.06927,74.7519478 345.659387,73.37271 354.399735,71.9197726 L354.399735,71.9197726 L356.994044,71.4775742 L356.994044,74.9835755 C356.994044,77.110339 356.345467,78.9738892 355.048312,80.5742262 C353.751158,82.1745631 351.936687,83.4537797 349.604897,84.4118762 C347.273108,85.3699726 344.902713,85.8490208 342.493713,85.8490208 Z M387.523494,89.2918509 L387.523494,71.8566014 C387.523494,66.9292483 389.044562,63.4969467 392.086698,61.5596968 C395.128833,59.6224468 398.271343,58.6538219 401.514229,58.6538219 C403.799691,58.6538219 405.961615,58.9907349 408,59.664561 L408,59.664561 L408,53.5685407 C406.702846,53.2105706 405.158615,53.0315856 403.367306,53.0315856 C401.39069,53.0315856 399.45268,53.2895346 397.553276,53.8054327 C395.653872,54.3213308 393.862563,55.0741209 392.179351,56.0638029 C390.496139,57.0534849 388.944187,58.4432512 387.523494,60.2331017 L387.523494,60.2331017 L387.523494,54.0107391 L378.906684,54.0107391 L378.906684,89.2918509 L387.523494,89.2918509 Z" id="pacecar"></path>
        </g>
    </g>
</svg>